<svg width="1920" height="1080" viewBox="0 0 1920 1080" fill="none" xmlns="http://www.w3.org/2000/svg">
<path d="M1144 1152C1144 1265.77 790.771 1358 677 1358C563.229 1358 471 1265.77 471 1152C471 1038.23 563.229 946 677 946C790.771 946 1144 1038.23 1144 1152Z" fill="#DFF0FF"/>
<path d="M1197.72 162.442C1187.02 275.709 1141.16 380.944 1028.98 399.928C916.805 418.912 873.574 309.973 791.495 231.19C709.416 152.406 623.323 100.309 601.23 -21.0993C557.597 -260.883 1221.54 -89.7767 1197.72 162.442Z" fill="#DFF0FF"/>
<path d="M2388 -118.5C2388 45.8047 2254.8 179 2090.5 179C1926.2 179 1792 162.805 1792 -1.5C1792 -165.805 1926.2 -416 2090.5 -416C2254.8 -416 2388 -282.805 2388 -118.5Z" fill="#DFF0FF"/>
<path d="M2064 878.5C2397 944.5 1871 1332 1757.5 1185C1644 1038 1451 1047.78 1451 878.5C1451 709.225 1588.22 572 1757.5 572C1926.78 572 1731 812.5 2064 878.5Z" fill="#DFF0FF"/>
<path d="M1349.32 734.84C1344.64 734.84 1339.9 734.645 1335.21 734.259C1242.12 726.593 1172.62 644.608 1180.29 551.502C1185.3 490.818 1222.77 437.221 1278.06 411.627C1300.39 401.257 1324.24 395.998 1348.95 395.998C1353.62 395.998 1358.37 396.194 1363.06 396.58C1456.15 404.266 1525.65 486.26 1517.98 579.357C1512.89 641.028 1474.58 695.002 1418.01 720.216C1396.31 729.919 1373.19 734.84 1349.32 734.84Z" fill="#00D5FE"/>
<g opacity="0.45">
<path opacity="0.45" d="M1514.66 548.791C1513.58 546.244 1512.85 545.874 1511.65 544.089C1510.83 542.88 1511.76 539.991 1514.97 538.304C1511.83 519.018 1505.39 500.739 1496.18 484.123C1496 484.578 1495.83 485.042 1495.59 485.471C1495.21 486.179 1494.05 486.255 1493.53 485.618C1491.92 483.662 1492.76 480.686 1487.87 480.028C1481.33 479.143 1478.43 482.89 1476.08 482.446C1473.97 482.047 1474.9 480.368 1476.51 478.951C1480.3 475.618 1487.26 474.586 1486.98 469.341C1486.08 468.056 1485.13 466.807 1484.2 465.547C1480.66 463.697 1478.77 465.798 1477.59 466.18C1476.28 466.596 1479.77 461.058 1475.22 459.246C1472.4 458.119 1469.08 459.513 1467.81 463.41C1466.63 467.01 1466.9 466.872 1461.49 466.245C1457.94 465.849 1455.11 465.626 1450.55 467.684C1446.51 469.511 1445.52 471.881 1444.71 475.391C1444.5 476.315 1443.52 475.942 1441.05 476.365C1436.24 477.194 1437.79 480.353 1438.48 483.363C1438.68 484.217 1437.37 484.287 1436.68 483.643C1435.51 482.547 1433.98 479.634 1431.04 480.499C1428.7 481.183 1428.66 483.515 1428.28 484.704C1426.1 491.556 1428.71 491.839 1426.1 498.292C1425.79 499.065 1424.71 500.597 1423.75 501.104C1422.11 501.979 1420.56 499.928 1422.16 496.277C1424.32 491.358 1428.71 483.01 1426.22 477.808C1425.12 475.531 1422.48 475.939 1420.62 477.772C1418.36 479.998 1417.81 482.003 1416.75 485.257C1415.22 489.918 1416.91 491.032 1417.12 493.306C1417.15 493.608 1416.69 494.156 1416.22 493.917C1414.45 493.022 1414.75 492.034 1410.41 487.733C1407.52 484.858 1404.7 486.508 1405.68 490.006C1406.19 491.859 1406.97 492.885 1405.95 493.442C1404.27 494.37 1401.47 495.366 1400.28 493.858C1398.81 491.999 1398.6 491.939 1395.73 493.329C1387.27 497.433 1379.7 496.623 1375.85 499.882C1373.59 501.789 1372.81 502.84 1370.88 502.544C1365.68 501.751 1363.83 496.107 1369.55 497.028C1371.33 497.314 1373.11 497.066 1374.88 497.138C1379.22 497.316 1380.15 492.374 1376.72 490.51C1374.57 489.343 1373.66 489.352 1370.83 489.001C1368.91 488.761 1367.84 487.435 1365.51 484.802C1359.29 477.763 1349.02 480.56 1342.36 486.479C1335.89 492.236 1337 500.158 1333.11 501.24C1330.17 502.058 1328.42 502.299 1326.78 504.778C1325.13 507.278 1325.47 510.4 1328.82 512.511C1330.59 513.63 1331.68 512.831 1334.34 511.761C1335.08 511.467 1335.01 512.61 1335.26 514.48C1336.31 522.262 1345.78 518.722 1344.94 510.286C1344.84 509.315 1344.51 508.237 1345.4 507.538C1347.91 505.549 1348.67 505.638 1349.51 503.869C1351.26 500.207 1349.91 498.005 1352.41 497.032C1357.36 495.111 1357.82 497.157 1357.33 497.584C1354.14 500.381 1348.87 505.362 1352.69 509.862C1354.57 512.079 1358.62 511.98 1361.27 512.994C1361.49 513.077 1361.54 513.546 1361.15 513.566C1352.44 514.003 1351.2 516.894 1349.47 522.5C1348.26 526.396 1341.79 522.424 1334.52 524.101C1332.29 524.616 1330.69 524.354 1328.43 524.006C1325.22 523.516 1321.86 525.626 1319.91 528.095C1316.91 531.876 1320.08 533.631 1315.64 533.588C1312.78 533.56 1310.86 533.828 1309.41 536.283C1308.42 537.972 1309.04 539.043 1309.91 541.629C1310.36 542.959 1309.38 543.078 1307.32 543.203C1298.44 543.742 1298.53 553.384 1305.59 554.429C1308 554.786 1311.15 554.229 1313.28 552.216C1315.84 549.803 1315.66 548.308 1318.4 546.475C1320.04 545.379 1321.94 544.879 1323.24 546.348C1328.68 552.481 1329.81 545.046 1331.38 545.052C1331.8 545.052 1331.15 548.856 1333.13 551.908C1334.73 554.379 1337.56 552.635 1337.25 550.607C1337.04 549.215 1337.58 547.979 1337.96 546.712C1338.44 545.08 1340.18 544.426 1340.33 545.437C1340.77 548.319 1339.82 552.936 1342.31 556.262C1343.13 557.353 1345.46 557.7 1346.46 556.087C1346.96 555.282 1347.6 553.712 1348.49 552.345C1348.91 551.69 1349.92 551.774 1350.26 552.453C1350.99 553.906 1350.63 555.194 1351.13 557.141C1353 564.576 1366.8 558.625 1362.8 565.497C1362.18 566.566 1361.23 567.146 1359.99 567.3C1352.77 568.202 1351.91 565.462 1347.07 564.032C1343.66 563.022 1338.99 567.098 1336.01 566.116C1331.45 564.612 1331.05 561.307 1330.09 558.848C1327.01 550.967 1310.07 553.577 1306.46 559.723C1304.65 562.809 1303.84 564.549 1301.55 565.018C1299.17 565.505 1296.51 565.221 1293.89 568.207C1286.99 576.086 1283.85 596.85 1304.74 599.473C1309.17 600.029 1316.03 599.44 1318.06 599.422C1320.17 599.404 1319.98 600.337 1319.61 602.659C1318.47 609.882 1325.08 611.892 1322.95 618.588C1321.49 623.17 1318.84 626.364 1321.44 632.404C1327.19 645.809 1326.32 647.265 1330.05 651.526C1335.06 657.243 1347.04 656.226 1350.59 645.429C1351.77 641.872 1359.8 645.058 1357.9 636.781C1357.49 635.023 1356.31 633.124 1358.44 632.035C1361.53 630.455 1365.99 633.105 1367.06 627.698C1368.31 621.373 1363.49 619.517 1366.29 614.812C1369.75 609.009 1376.18 607.871 1381.69 603.214C1385.39 600.089 1384.04 596.245 1380.62 595.449C1375.15 594.179 1367.49 597.998 1363.26 592.814C1358.9 587.468 1363.22 579.814 1361.89 573.873C1361.88 573.807 1361.95 573.654 1361.98 573.656C1364.59 573.895 1365.93 586.658 1370.05 590.949C1372.59 593.597 1376.41 593.924 1378.91 593.084C1383.06 591.689 1389.55 592.038 1392.87 589.885C1398.3 586.363 1393.65 581.756 1389.31 580.237C1386.52 579.263 1384.24 579.744 1382.34 577.043C1380.58 574.552 1380.35 570.969 1383.56 569.581C1390.6 566.538 1405.72 583.771 1409.12 589.054C1412.29 593.989 1411.5 600.523 1415.61 605.063C1417.63 607.293 1421.64 607.875 1423.67 604.801C1426.43 600.615 1422.61 596.867 1430.1 594.672C1432.25 594.04 1433.89 592.753 1435.03 590.835C1435.88 589.416 1435.99 589.535 1437.26 590.327C1438.98 591.396 1440.07 591.377 1441.74 592.662C1443.18 593.781 1442.91 595.263 1443.02 596.281C1443.95 605.011 1448.55 600.727 1453.69 606.757C1456.39 609.916 1459.06 610.991 1462.86 609.219C1468.59 606.539 1463.73 597.619 1463.51 595.385C1463.4 594.236 1464.33 593.01 1465.38 593.497C1468.49 594.934 1470.71 596.924 1474.95 595.626C1480.49 593.93 1482.93 589.648 1482.24 584.145C1481.48 578.215 1479.22 575.417 1482.22 570.168C1482.83 569.107 1484.67 567.397 1485.3 568.333C1486.91 570.711 1487.45 576.743 1491.39 578.634C1493.78 579.785 1496.15 577.364 1496.46 575.049C1497.04 570.752 1496.63 569.658 1498.29 567.979C1500.86 565.381 1501.93 566.182 1505.5 564.851C1512.56 562.222 1517.58 555.693 1514.66 548.791Z" fill="#4217A6"/>
<path opacity="0.45" d="M1284.33 600.824C1275.97 594.762 1275.66 596.57 1269.54 592.949C1256.15 585.027 1261.93 590.791 1250.03 580.677C1248.07 579.013 1245.89 577.887 1243.22 578.135C1235.05 578.892 1233.34 582.425 1230.66 577.678C1228.75 574.301 1226.4 573.692 1224.35 572.621C1223.76 572.314 1223.83 571.683 1225.09 567.852C1226.12 564.73 1223.41 561.293 1220.69 561.807C1219.95 561.946 1218.07 562.234 1216.98 562.169C1215.52 562.082 1214.44 560.312 1214.82 559.075C1217.57 550.097 1227.75 551.82 1237.18 551.129C1250.01 550.189 1247.34 534.697 1255.59 532.836C1257.3 532.449 1272.44 531.998 1269.55 523.878C1267.63 518.493 1265.24 522.109 1265.79 513.374C1266.65 499.649 1245.24 492.568 1241.5 503.209C1240.5 506.059 1240.61 506.366 1240.12 510.795C1240.12 510.794 1240.11 510.793 1240.11 510.793C1239.67 514.747 1239.55 517.385 1238.79 517.404C1237.49 517.436 1239.06 510.653 1233.19 507.11C1231.96 506.372 1230.68 505.748 1229.25 505.531C1224.87 504.868 1223.3 502.093 1223.94 499.596C1227.16 487.003 1234.41 489.65 1236.27 482.543C1236.15 482.193 1236.05 481.811 1235.96 481.418C1237.86 490.482 1253.87 491.164 1254.8 479.381C1255.41 471.66 1252.69 462.665 1245.54 458.638C1242.8 457.099 1240.26 456.654 1239.91 453.565C1239.83 452.86 1239.75 452.15 1239.59 451.459C1238.17 445.101 1230.83 447.376 1227.32 451.873C1224.68 455.257 1226.71 460.416 1230.47 462.536C1233.34 464.16 1238.52 464.482 1238.22 468.961C1237.83 474.699 1235.09 476.888 1235.94 481.285C1235.73 480.279 1235.65 479.194 1235.85 478.249C1232.29 470.336 1217.32 472.216 1209.22 474.567C1208.66 474.728 1208.1 474.856 1207.53 474.98C1193.44 496.998 1184.3 522.618 1181.81 550.421C1183.16 553.939 1181.75 553.401 1184.71 562.972C1186.32 568.166 1191.96 568.628 1192.66 562.218C1192.82 560.754 1193.85 563.887 1194.99 565.974C1200.36 575.82 1214.45 570.441 1219.39 580.285C1221.46 584.408 1222 585.57 1223.08 586.758C1228.12 592.298 1234.03 586.878 1230.05 592.601C1228.12 595.386 1227.44 598.607 1226.91 601.859C1226.76 602.807 1226.93 603.808 1226.93 604.785C1226.92 610.188 1229.37 615.303 1232.83 618.976C1233.99 620.205 1233.86 621.598 1233.42 623.237C1227.83 643.953 1240.03 643.08 1232.1 659.253C1230.11 663.298 1227.68 669.563 1228.56 674.06C1229.14 677.071 1232.44 678.521 1234.65 677.87C1237.71 676.966 1237.89 675.684 1240.8 672.955C1248.39 665.839 1246.53 657.239 1257.36 651.301C1259.71 650.014 1261.85 648.439 1263.71 646.482C1269.61 640.272 1272.2 639.204 1274.57 632.551C1277.78 623.562 1276.38 620.346 1280.99 617.186C1283.47 615.483 1285.98 614.118 1287.55 612.63C1290.61 609.729 1287.84 603.368 1284.33 600.824Z" fill="#4217A6"/>
<path opacity="0.45" d="M1275.85 445.322C1276.84 447.081 1277.25 448.949 1276.95 450.971C1276.72 452.466 1276.54 453.959 1276.06 455.408C1273.74 462.369 1277.48 463.986 1280.06 468.359C1283.33 473.887 1273.94 477.277 1277.21 489.682C1280.26 501.289 1288.53 502.389 1291.19 497.312C1293.69 492.554 1292.49 494.092 1295.61 488.205C1300.13 479.715 1313.56 485.614 1322.09 469.784C1325.83 462.84 1325.16 460.241 1326.87 451.872C1328.84 442.202 1336.76 445.031 1340.25 429.288C1341.4 424.078 1340.56 418.362 1335.43 417.048C1334.45 416.798 1333.85 416.97 1331.82 416.189C1328.62 414.961 1332.52 407.766 1332.05 401.881C1331.96 400.668 1331.71 399.499 1331.39 398.351C1310.1 400.588 1289.89 406.842 1271.57 416.398C1270.92 422.06 1269.7 420.746 1264.3 424.408C1260.68 426.865 1259.22 432.091 1261.58 435.697C1266.39 443.067 1271.88 438.268 1275.85 445.322Z" fill="#4217A6"/>
<path opacity="0.45" d="M1426.45 663.33C1423.51 666.273 1424.06 668.015 1423.05 667.385C1420.63 665.874 1421.34 661.607 1418.92 658.912C1416.65 656.38 1413.05 655.832 1409.63 659.322C1408.43 660.545 1407.31 662.266 1404.69 661.92C1401.31 661.473 1393.87 664.861 1390.96 666.627C1381.34 672.449 1382.7 687.822 1394.78 688.576C1398.46 688.806 1400.77 687.712 1405.51 686.71C1407.99 686.185 1412.25 687.327 1412.31 689.79C1412.52 699.089 1422.98 706.254 1433.85 702.773C1454.44 696.18 1439.41 650.322 1426.45 663.33Z" fill="#4217A6"/>
<path opacity="0.45" d="M1356.48 451.09C1359.35 452.488 1361.91 449.914 1363.13 447.041C1363.87 445.281 1364.01 444.275 1365.16 444.211C1366.69 444.128 1368.08 443.992 1368.9 442.631C1370.92 439.285 1367.92 438.485 1371.26 437.354C1376.12 435.716 1378.09 431.202 1373.8 428.733C1370.96 427.095 1369.11 429.368 1368.36 429.971C1367.8 430.418 1367.39 429.564 1366.28 428.651C1365.51 428.016 1364.59 427.691 1363.72 427.546C1357.33 427.305 1351.01 434.522 1352 439.882C1351.96 443.061 1353.6 449.682 1356.48 451.09Z" fill="#4217A6"/>
<path opacity="0.45" d="M1489.52 621.639C1487.42 623.136 1486.06 625.826 1488 628.261C1489.66 630.328 1491.18 630.139 1492.08 632.703C1493.3 636.146 1496.63 637.668 1499.37 637.217C1500.01 637.113 1500.63 636.968 1501.26 636.823C1502.73 633.69 1504.11 630.5 1505.39 627.26C1501.63 626.034 1500.65 623.566 1497.09 621.818C1494.53 620.566 1491.85 619.98 1489.52 621.639Z" fill="#4217A6"/>
<path opacity="0.45" d="M1403.55 482.377C1408.69 474.466 1406.93 474.279 1414.93 470.81C1419.78 468.712 1424.55 467.148 1423.81 461.831C1423.65 460.717 1422.58 459.777 1421.23 460.33C1417.96 461.673 1417.99 463.497 1415.96 462.995C1415.27 462.826 1414.58 462.509 1413.9 462.508C1409.9 462.503 1406.38 463.756 1403.65 466.771C1398.52 472.447 1394.21 481.943 1397.2 484.753C1399.19 486.617 1402.08 484.653 1403.55 482.377Z" fill="#4217A6"/>
<path opacity="0.45" d="M1429.17 626.128C1430.06 632.839 1437.85 634.96 1440.93 630.011C1443.46 625.95 1440.33 623.69 1437.95 621.923C1436.98 621.203 1437.09 620.386 1436.61 618.815C1435.28 614.496 1429.72 611.778 1426.05 612.276C1423.3 612.648 1423.44 616.569 1427.37 619.17C1429.45 620.549 1428.86 623.823 1429.17 626.128Z" fill="#4217A6"/>
<path opacity="0.45" d="M1389.44 616.616C1388.54 613.799 1385.74 614.489 1384.83 616.698C1384.23 618.16 1383.14 618.037 1381.53 618.563C1379.72 619.151 1378.69 621.21 1379.2 622.792C1379.58 623.989 1379.85 624.897 1379.35 625.6C1378.58 626.683 1377.41 627.538 1377.47 630.402C1377.7 641.229 1392.51 626.15 1389.44 616.616Z" fill="#4217A6"/>
<path opacity="0.45" d="M1453.66 622.143C1453.42 622.518 1453.25 622.929 1453.03 623.318C1451.9 625.366 1450.44 623.83 1447.46 625.197C1444.94 626.35 1443.92 629.472 1446.36 631.779C1450.33 635.537 1458.48 634.223 1460.52 625.473C1461.65 620.585 1455.95 618.507 1453.66 622.143Z" fill="#4217A6"/>
</g>
<path opacity="0.25" d="M1417.44 718.949C1392.5 730.101 1364.47 735.276 1335.32 732.876C1242.84 725.26 1174.05 644.099 1181.67 551.616C1186.83 489.133 1225.55 437.464 1278.64 412.887C1254.92 441.336 1239.44 477.126 1236.15 516.84C1227.06 626.994 1313.97 716.448 1417.44 718.949Z" fill="#4217A6"/>
<path opacity="0.75" d="M1454.41 475.825C1459.13 479.178 1463.13 483.13 1466.99 487.315C1470.78 491.536 1474.24 496.062 1477.34 500.847C1480.49 505.597 1483.16 510.667 1485.59 515.847C1487.95 521.06 1489.89 526.474 1491.45 531.99C1494.59 543.031 1495.85 554.586 1495.44 565.984C1494.95 577.384 1492.78 588.653 1488.83 599.18C1488.51 600.032 1487.56 600.464 1486.7 600.144C1485.98 599.87 1485.55 599.135 1485.65 598.395L1485.65 598.382C1487.03 587.469 1487.73 576.682 1487.33 565.988C1486.84 555.304 1485.22 544.752 1482.37 534.524C1479.53 524.293 1475.54 514.366 1470.46 504.927C1467.91 500.221 1465.19 495.57 1462.14 491.116C1459.15 486.634 1455.86 482.241 1452.4 478.159L1452.34 478.084C1451.78 477.432 1451.86 476.457 1452.52 475.905C1453.07 475.44 1453.85 475.426 1454.41 475.825Z" fill="white"/>
<path d="M1399.5 579.297C1396.18 586.826 1396.18 594.138 1399.45 600.479C1402.95 607.225 1409.78 611.65 1418.69 612.945C1418.96 612.999 1419.23 613.053 1419.5 613.08C1419.68 613.107 1419.87 613.134 1420.09 613.134V688.794C1420.09 691.6 1417.77 693.894 1414.96 693.894H1283.28C1280.48 693.894 1278.18 691.6 1278.18 688.794V613.565C1278.67 613.538 1279.13 613.484 1279.59 613.43C1279.67 613.43 1279.75 613.403 1279.83 613.403C1286.09 612.594 1291.16 610.111 1294.94 606.01C1296.43 604.418 1297.72 602.583 1298.8 600.479C1302.09 594.138 1302.07 586.826 1298.75 579.297C1297.75 577.003 1296.45 574.791 1294.94 572.686C1291.08 567.289 1285.74 562.567 1279.59 559.086C1279.13 558.789 1278.67 558.546 1278.19 558.304V524.116C1278.19 521.58 1280.05 519.475 1282.48 519.07C1282.75 519.016 1283.02 518.989 1283.28 518.989H1414.96C1417.77 518.989 1420.09 521.31 1420.09 524.116V558.304C1419.63 558.547 1419.14 558.817 1418.69 559.086C1410.11 563.971 1403.09 571.202 1399.5 579.297Z" fill="#915EFD"/>
<path d="M1343.4 553.701H1309.53C1304.34 553.701 1300.13 549.492 1300.13 544.3C1300.13 539.108 1304.34 534.899 1309.53 534.899H1343.4C1348.6 534.899 1352.81 539.108 1352.81 544.3C1352.8 549.492 1348.6 553.701 1343.4 553.701Z" fill="#4217A6"/>
<path opacity="0.5" d="M1405.95 621.522C1406.57 625.275 1406.89 629.027 1407.12 632.78C1407.36 636.533 1407.43 640.285 1407.46 644.038C1407.45 647.791 1407.39 651.543 1407.16 655.296C1406.95 659.049 1406.64 662.801 1406.04 666.554C1405.91 667.346 1405.17 667.884 1404.38 667.757C1403.74 667.655 1403.27 667.155 1403.17 666.554C1402.57 662.801 1402.26 659.049 1402.05 655.296C1401.82 651.543 1401.77 647.791 1401.75 644.038C1401.79 640.285 1401.86 636.533 1402.1 632.78C1402.32 629.027 1402.64 625.275 1403.26 621.522C1403.38 620.778 1404.08 620.273 1404.83 620.394C1405.42 620.492 1405.86 620.96 1405.95 621.522Z" fill="white"/>
<path d="M1315.06 538.844C1312.05 538.844 1309.61 541.287 1309.61 544.301C1309.61 547.314 1312.05 549.758 1315.06 549.758C1318.08 549.758 1320.52 547.315 1320.52 544.301C1320.52 541.287 1318.08 538.844 1315.06 538.844Z" fill="white"/>
<path d="M1353.78 627.085C1365.16 624.522 1372.31 613.214 1369.75 601.829C1367.19 590.444 1355.88 583.293 1344.5 585.856C1333.11 588.42 1325.96 599.728 1328.52 611.113C1331.09 622.498 1342.4 629.649 1353.78 627.085Z" fill="white"/>
<path d="M1350.11 592.591L1353.51 599.494C1353.67 599.814 1353.98 600.036 1354.33 600.087L1361.95 601.194C1362.84 601.323 1363.19 602.416 1362.55 603.043L1357.04 608.416C1356.78 608.665 1356.66 609.024 1356.72 609.376L1358.03 616.963C1358.18 617.849 1357.25 618.524 1356.45 618.106L1349.64 614.524C1349.32 614.358 1348.95 614.358 1348.63 614.524L1341.82 618.106C1341.02 618.524 1340.09 617.849 1340.24 616.963L1341.55 609.376C1341.61 609.024 1341.49 608.665 1341.23 608.416L1335.72 603.043C1335.08 602.416 1335.43 601.323 1336.32 601.194L1343.94 600.087C1344.29 600.035 1344.6 599.814 1344.76 599.494L1348.16 592.591C1348.56 591.785 1349.71 591.785 1350.11 592.591Z" fill="#FFCF00"/>
<path d="M1286.84 486.995C1283.45 491.447 1285.03 497.688 1292.56 501.043C1304.56 506.392 1319.79 501.236 1322.51 494.222C1328.1 479.795 1296.8 473.911 1286.84 486.995Z" fill="#FC09B2"/>
<path d="M1413.08 486.995C1403.12 473.911 1371.82 479.795 1377.41 494.222C1380.13 501.236 1395.36 506.392 1407.36 501.043C1414.89 497.688 1416.47 491.447 1413.08 486.995Z" fill="#FC09B2"/>
<g opacity="0.25">
<path opacity="0.25" d="M1294.94 572.687V532.59C1294.94 527.247 1291.81 522.607 1287.31 520.394C1285.82 519.665 1284.2 519.207 1282.48 519.072C1280.05 519.477 1278.19 521.582 1278.19 524.118V558.306C1278.67 558.549 1279.13 558.791 1279.59 559.088C1285.74 562.568 1291.08 567.29 1294.94 572.687Z" fill="#000E3F"/>
<path opacity="0.25" d="M1418.69 684.666C1415.74 681.428 1411.51 679.404 1406.79 679.404H1306C1299.88 679.404 1294.94 674.439 1294.94 668.314V606.01C1291.16 610.112 1286.09 612.594 1279.83 613.403C1279.75 613.403 1279.67 613.43 1279.59 613.43C1279.13 613.484 1278.67 613.538 1278.18 613.565V688.794C1278.18 691.6 1280.48 693.894 1283.28 693.894H1414.96C1417.77 693.894 1420.09 691.6 1420.09 688.794V686.446C1419.66 685.827 1419.2 685.233 1418.69 684.666Z" fill="#000E3F"/>
</g>
<path d="M1363.18 395.191C1358.46 394.813 1353.66 394.598 1348.93 394.598C1324.03 394.598 1299.99 399.913 1277.48 410.356C1250.53 422.849 1227.16 442.223 1209.92 466.427C1192.16 491.332 1181.42 520.717 1178.91 551.397C1171.17 645.244 1241.24 727.92 1335.09 735.637C1339.81 736.042 1344.62 736.231 1349.31 736.231C1373.38 736.231 1396.69 731.266 1418.58 721.471C1475.59 696.053 1514.23 641.655 1519.36 579.459C1527.1 485.612 1457.03 402.936 1363.18 395.191ZM1516.61 579.243C1511.37 642.572 1471.65 694.785 1417.44 718.961C1396.53 728.297 1373.43 733.451 1349.31 733.451C1344.7 733.451 1340.03 733.262 1335.33 732.885C1242.84 725.248 1174.06 644.11 1181.67 551.613C1186.82 489.12 1225.54 437.474 1278.64 412.893C1300.15 402.909 1324 397.378 1348.93 397.378C1353.57 397.378 1358.24 397.567 1362.94 397.972C1455.44 405.607 1524.22 486.772 1516.61 579.243Z" fill="#000E3F"/>
<path d="M1354.2 544.3C1354.2 538.363 1349.37 533.507 1343.4 533.507H1309.54C1303.58 533.507 1298.75 538.364 1298.75 544.3C1298.75 550.236 1303.58 555.093 1309.54 555.093H1343.4C1349.37 555.094 1354.2 550.237 1354.2 544.3ZM1301.53 544.3C1301.53 539.874 1305.11 536.286 1309.54 536.286H1343.4C1347.83 536.286 1351.42 539.875 1351.42 544.3C1351.42 548.725 1347.83 552.314 1343.4 552.314H1309.54C1305.11 552.314 1301.53 548.726 1301.53 544.3Z" fill="#000E3F"/>
<path d="M1315.07 537.447C1311.29 537.447 1308.22 540.523 1308.22 544.301C1308.22 548.078 1311.29 551.154 1315.07 551.154C1318.85 551.154 1321.9 548.078 1321.9 544.301C1321.9 540.522 1318.85 537.447 1315.07 537.447ZM1315.07 548.375C1312.83 548.375 1311 546.54 1311 544.301C1311 542.061 1312.83 540.226 1315.07 540.226C1317.31 540.226 1319.14 542.061 1319.14 544.301C1319.14 546.54 1317.31 548.375 1315.07 548.375Z" fill="#000E3F"/>
<path d="M1349.12 583.939C1336.71 583.939 1326.62 594.03 1326.62 606.443C1326.62 618.882 1336.71 628.974 1349.12 628.974C1361.56 628.974 1371.65 618.882 1371.65 606.443C1371.65 594.03 1361.56 583.939 1349.12 583.939ZM1349.12 626.194C1338.25 626.194 1329.4 617.344 1329.4 606.442C1329.4 595.568 1338.25 586.717 1349.12 586.717C1360.02 586.717 1368.88 595.568 1368.88 606.442C1368.87 617.344 1360.02 626.194 1349.12 626.194Z" fill="#000E3F"/>
<path d="M1354.68 598.725L1351.36 591.979C1350.93 591.116 1350.09 590.603 1349.12 590.603C1348.18 590.603 1347.34 591.116 1346.91 591.979L1343.59 598.725L1336.12 599.832C1335.17 599.967 1334.42 600.614 1334.12 601.505C1333.82 602.395 1334.06 603.367 1334.74 604.041L1340.14 609.302L1338.87 616.722C1338.71 617.667 1339.08 618.584 1339.87 619.15C1340.3 619.447 1340.81 619.609 1341.3 619.609C1341.7 619.609 1342.11 619.528 1342.46 619.339L1349.12 615.831L1355.81 619.339C1356.65 619.771 1357.65 619.69 1358.4 619.15C1359.19 618.583 1359.56 617.666 1359.4 616.722L1358.11 609.302L1363.5 604.041C1364.21 603.366 1364.42 602.395 1364.15 601.505C1363.86 600.614 1363.07 599.967 1362.15 599.832L1354.68 598.725ZM1356.06 607.414C1355.49 607.98 1355.22 608.817 1355.36 609.6L1356.54 616.588L1350.28 613.296C1349.93 613.107 1349.53 612.999 1349.12 612.999C1348.74 612.999 1348.34 613.107 1347.99 613.296L1341.7 616.588L1342.92 609.6C1343.05 608.817 1342.78 607.981 1342.19 607.414L1337.11 602.476L1344.13 601.451C1344.94 601.343 1345.64 600.831 1345.99 600.102L1349.12 593.761L1352.28 600.102C1352.63 600.831 1353.33 601.343 1354.14 601.451L1361.13 602.476L1356.06 607.414Z" fill="#000E3F"/>
<path d="M1460.37 597.025C1450.71 607.899 1435.31 614.267 1421.46 613.269C1421.01 613.242 1420.55 613.188 1420.09 613.134C1419.87 613.134 1419.68 613.107 1419.49 613.08C1419.22 613.053 1418.95 612.999 1418.68 612.945C1409.78 611.65 1402.95 607.225 1399.45 600.479C1396.18 594.138 1396.18 586.826 1399.5 579.297C1403.09 571.202 1410.1 563.971 1418.68 559.087C1419.6 558.547 1420.52 558.062 1421.46 557.603C1424.35 556.173 1427.4 555.013 1430.53 554.176C1431.26 553.96 1431.69 553.205 1431.5 552.476C1431.31 551.721 1430.53 551.289 1429.8 551.478C1426.94 552.261 1424.16 553.286 1421.46 554.527V524.117C1421.46 520.528 1418.55 517.614 1414.96 517.614H1283.28C1282.96 517.614 1282.61 517.641 1282.23 517.695C1279.08 518.234 1276.81 520.933 1276.81 524.117V554.527C1274.11 553.259 1271.33 552.234 1268.47 551.478C1267.71 551.289 1266.96 551.721 1266.77 552.476C1266.58 553.205 1267.01 553.96 1267.74 554.176C1270.87 555.012 1273.92 556.173 1276.81 557.603C1277.29 557.819 1277.75 558.062 1278.18 558.305C1278.67 558.548 1279.13 558.79 1279.59 559.087C1285.74 562.568 1291.08 567.29 1294.94 572.687C1296.45 574.791 1297.75 577.004 1298.74 579.298C1302.06 586.827 1302.09 594.139 1298.8 600.48C1297.72 602.584 1296.42 604.419 1294.94 606.011C1291.16 610.113 1286.09 612.595 1279.83 613.404C1279.75 613.404 1279.67 613.431 1279.59 613.431C1279.13 613.485 1278.67 613.539 1278.18 613.566C1277.72 613.593 1277.27 613.62 1276.81 613.647C1262.26 614.213 1245.94 605.984 1237.9 596.998C1237.38 596.432 1236.49 596.377 1235.93 596.89C1235.36 597.403 1235.31 598.293 1235.82 598.86C1243.94 607.872 1259.89 616.453 1275.24 616.453C1275.78 616.453 1276.29 616.453 1276.81 616.399V688.795C1276.81 692.384 1279.72 695.298 1283.28 695.298H1414.96C1418.55 695.298 1421.46 692.384 1421.46 688.795V616.049C1422.46 616.13 1423.49 616.157 1424.48 616.157C1438.38 616.157 1452.82 609.681 1462.45 598.861C1462.96 598.295 1462.91 597.404 1462.34 596.891C1461.75 596.377 1460.89 596.432 1460.37 597.025ZM1418.69 688.795C1418.69 690.846 1417.01 692.519 1414.96 692.519H1283.28C1281.23 692.519 1279.59 690.846 1279.59 688.795V616.21C1279.78 616.21 1279.99 616.183 1280.18 616.156C1286.01 615.427 1291 613.269 1294.94 609.842C1297.5 607.656 1299.61 604.958 1301.28 601.747C1304.9 594.759 1304.93 586.394 1301.28 578.164C1299.74 574.656 1297.59 571.311 1294.94 568.207C1290.84 563.296 1285.52 559.06 1279.59 555.903V524.117C1279.59 522.282 1280.88 520.744 1282.66 520.42C1282.88 520.393 1283.1 520.393 1283.29 520.393H1414.96C1417.01 520.393 1418.69 522.066 1418.69 524.117V555.93C1408.95 561.084 1400.96 569.125 1396.97 578.164C1393.35 586.394 1393.38 594.759 1396.99 601.747C1400.99 609.437 1408.68 614.375 1418.69 615.751V688.795H1418.69Z" fill="#000E3F"/>
<path d="M1349.66 489.201C1350.26 489.201 1350.85 489.174 1351.44 489.093C1363.18 487.933 1369.41 476.438 1369.31 466.184C1369.31 465.375 1368.63 464.7 1367.85 464.727C1367.01 464.727 1366.36 465.402 1366.39 466.211C1366.45 475.142 1361.16 485.18 1351.15 486.179C1347.02 486.583 1343.16 485.261 1340 482.32C1335.85 478.461 1333.39 472.31 1333.55 466.238C1333.58 465.429 1332.96 464.754 1332.12 464.727C1331.31 464.673 1330.64 465.347 1330.61 466.157C1330.42 473.038 1333.26 480.054 1338.01 484.479C1341.32 487.582 1345.34 489.201 1349.66 489.201Z" fill="#000E3F"/>
<path d="M1305.27 474.954C1312.61 475.17 1317.71 468.964 1317.69 463.162C1317.63 456.038 1312.13 451.289 1305.71 451.101C1299.39 450.885 1293.16 457.172 1293.89 463C1293.4 469.449 1299.31 474.765 1305.27 474.954Z" fill="#000E3F"/>
<path d="M1394.37 474.873C1399.96 475.412 1406.3 469.476 1406.14 462.838C1406 456.389 1400.53 451.101 1394.16 451.127C1387.57 451.154 1382.18 456.47 1382.23 463.431C1382.26 469.314 1387.79 475.359 1394.37 474.873Z" fill="#000E3F"/>
<path d="M1268.67 709.228C1268.67 729.602 1261.44 748.28 1249.43 762.865C1233.95 781.64 1210.52 793.601 1184.3 793.601C1137.69 793.601 1099.92 755.828 1099.92 709.228C1099.92 678.635 1116.2 651.849 1140.56 637.056C1153.32 629.316 1168.29 624.854 1184.3 624.854C1230.9 624.855 1268.67 662.628 1268.67 709.228Z" fill="#4217A6"/>
<path opacity="0.25" d="M1249.43 762.865C1233.95 781.64 1210.52 793.601 1184.3 793.601C1137.69 793.601 1099.92 755.828 1099.92 709.228C1099.92 678.635 1116.2 651.849 1140.56 637.056C1129.92 667.665 1125.14 700.672 1142.96 729.937C1165.47 766.927 1212.65 779.961 1249.43 762.865Z" fill="#000E3F"/>
<path d="M1208.3 754.31L1192.32 758.411L1183.12 760.786L1181.75 761.137C1181.75 762.27 1181.88 763.377 1182.18 764.51C1183.8 770.77 1189.41 775.141 1195.86 775.141C1197.05 775.141 1198.23 774.979 1199.39 774.71C1203.5 773.63 1206.9 770.824 1208.68 766.993C1210.05 764.025 1210.38 760.652 1209.57 757.495C1209.27 756.36 1208.84 755.281 1208.3 754.31Z" fill="#FFCF00"/>
<path d="M1239.76 728.352C1237.09 723.954 1233.74 720.905 1230.21 717.694C1227.27 715.023 1224.25 712.243 1221.47 708.546C1217.9 703.797 1215.83 697.996 1213.83 692.41C1211.32 685.394 1208.73 678.163 1203.23 672.604C1198.85 668.179 1193.19 665.076 1187.04 663.646C1184.47 663.026 1181.8 662.729 1179.13 662.729C1178.51 662.729 1177.86 662.756 1177.24 662.783C1175.11 662.891 1172.98 663.215 1170.9 663.728C1168.82 664.268 1166.85 664.996 1164.94 665.941C1164.48 666.13 1164.05 666.345 1163.61 666.616C1161.51 667.695 1159.57 669.017 1157.76 670.528C1157.38 670.798 1157.06 671.095 1156.73 671.418C1153.01 674.737 1150.02 678.893 1148.07 683.56C1147.61 684.693 1147.21 685.854 1146.89 687.041C1144.73 694.597 1145.94 702.179 1147.13 709.518C1148.05 715.373 1149.02 721.445 1148.18 727.327C1147.53 731.914 1146.21 735.799 1144.92 739.55C1142.95 745.352 1141.06 750.91 1141.89 758.249C1142.3 758.033 1142.76 757.845 1143.22 757.736C1143.27 757.709 1143.3 757.682 1143.35 757.682L1240.33 732.83C1240.38 732.83 1240.41 732.803 1240.46 732.803C1240.92 732.695 1241.41 732.614 1241.89 732.614C1241.27 731.104 1240.57 729.701 1239.76 728.352Z" fill="#FFCF00"/>
<g opacity="0.5">
<path opacity="0.5" d="M1192.32 758.411L1183.12 760.786C1183.1 761.919 1183.23 763.053 1183.53 764.186C1185.28 770.986 1192.22 775.087 1199.04 773.361C1202.88 772.363 1205.87 769.718 1207.43 766.399C1205.17 765.967 1202.93 765.266 1200.8 764.294C1197.67 762.863 1194.81 760.867 1192.32 758.411Z" fill="#FD8A02"/>
<path opacity="0.5" d="M1238.57 729.08C1236.04 726.436 1232.99 724.331 1229.45 722.955C1218.71 718.745 1207.19 723.225 1197.1 727.218C1189.95 730.051 1182.99 733.964 1175.76 728.756C1168.98 723.899 1170.01 713.808 1168.6 706.576C1166.63 696.43 1158.89 687.877 1149.37 684.099C1148.91 685.179 1148.53 686.285 1148.21 687.418C1144.45 700.667 1151.47 714.104 1149.55 727.515C1147.91 739.199 1142.08 746.215 1143.21 757.736C1143.27 757.709 1143.29 757.682 1143.35 757.682L1240.33 732.83C1240.38 732.83 1240.41 732.803 1240.46 732.803C1239.89 731.455 1239.25 730.214 1238.57 729.08Z" fill="#FD8A02"/>
</g>
<path d="M1156.73 671.417C1157.06 671.093 1157.38 670.797 1157.76 670.527C1159.57 669.016 1161.51 667.694 1163.61 666.615C1164.05 666.345 1164.48 666.129 1164.94 665.94C1163.96 665.05 1163.21 663.835 1162.86 662.432C1162.43 660.732 1162.59 658.924 1163.34 657.332C1164.31 655.335 1166.1 653.851 1168.25 653.311C1168.85 653.149 1169.5 653.068 1170.12 653.068C1173.54 653.068 1176.51 655.389 1177.35 658.707C1177.7 660.056 1177.67 661.486 1177.24 662.781C1177.86 662.754 1178.51 662.727 1179.13 662.727C1181.8 662.727 1184.47 663.024 1187.03 663.644C1187.52 661.243 1187.44 658.706 1186.82 656.278C1184.85 648.642 1178 643.326 1170.12 643.326C1168.69 643.326 1167.23 643.488 1165.83 643.865C1161.91 644.864 1158.49 647.211 1156.14 650.476C1153.12 654.632 1152.15 659.866 1153.41 664.831C1154.04 667.316 1155.2 669.556 1156.73 671.417Z" fill="#FD8A02"/>
<path d="M1248.15 737.472C1247.42 734.612 1244.86 732.615 1241.92 732.615H1241.89C1241.41 732.615 1240.92 732.696 1240.46 732.804C1240.41 732.804 1240.38 732.831 1240.33 732.831L1143.35 757.683C1143.3 757.683 1143.27 757.71 1143.22 757.737C1142.76 757.845 1142.3 758.034 1141.89 758.25C1140.87 758.817 1140.03 759.626 1139.41 760.651C1138.55 762.135 1138.31 763.862 1138.71 765.535C1139.44 768.368 1142 770.365 1144.94 770.365C1145.48 770.365 1146.02 770.284 1146.56 770.149L1181.75 761.136L1183.12 760.785L1192.32 758.41L1208.3 754.309L1243.51 745.296C1245.18 744.865 1246.59 743.812 1247.45 742.328C1248.31 740.845 1248.58 739.118 1248.15 737.472Z" fill="#FD8A02"/>
<path opacity="0.75" d="M1203.17 701.017C1203.3 702.59 1201.16 703.196 1200.44 701.793C1196.61 694.245 1194.44 686.134 1183.58 680.473C1176.68 676.891 1173.16 678.288 1173.64 675.878C1174.44 671.823 1200.84 673.832 1203.17 701.017Z" fill="white"/>
<g opacity="0.18">
<path opacity="0.18" d="M1157.76 670.527C1159.57 669.016 1161.51 667.694 1163.61 666.615C1162.64 665.563 1161.89 664.24 1161.51 662.756C1160.97 660.651 1161.24 658.547 1162.1 656.739C1160.29 655.093 1158.68 653.258 1157.27 651.288C1154.6 654.958 1153.55 659.761 1154.76 664.51C1155.36 666.777 1156.38 668.827 1157.76 670.527Z" fill="#000E3F"/>
<path opacity="0.18" d="M1191 746.906L1143.7 759.038C1142.35 759.384 1141.27 760.243 1140.61 761.354C1139.95 762.466 1139.72 763.83 1140.06 765.178C1140.76 767.873 1143.51 769.503 1146.2 768.811L1200.12 754.983C1196.59 752.982 1193.53 750.159 1191 746.906Z" fill="#000E3F"/>
</g>
<path opacity="0.5" d="M1200.62 641.711C1207.02 643.614 1213.1 646.662 1218.63 650.5C1224.18 654.326 1229.15 658.999 1233.43 664.231C1237.66 669.497 1241.21 675.334 1243.78 681.582C1246.36 687.812 1248.01 694.437 1248.41 701.112C1248.46 701.906 1247.86 702.588 1247.06 702.636C1246.36 702.679 1245.74 702.203 1245.58 701.543C1244.02 695.323 1241.89 689.34 1239.11 683.682C1236.32 678.037 1232.95 672.697 1228.98 667.824C1225.06 662.917 1220.55 658.484 1215.63 654.527C1210.7 650.582 1205.33 647.167 1199.62 644.213C1198.96 643.872 1198.69 643.056 1199.03 642.391C1199.33 641.803 1200.01 641.531 1200.62 641.711Z" fill="white"/>
<path d="M1184.28 623.468C1168.58 623.468 1153.22 627.758 1139.84 635.88C1113.96 651.585 1098.53 679 1098.53 709.221C1098.53 756.522 1137.01 795 1184.28 795C1210 795 1234.12 783.613 1250.5 763.754C1263.1 748.427 1270.06 729.08 1270.06 709.221C1270.06 661.946 1231.58 623.468 1184.28 623.468ZM1248.37 761.973C1232.53 781.185 1209.16 792.221 1184.28 792.221C1138.55 792.221 1101.31 754.984 1101.31 709.221C1101.31 679.971 1116.26 653.447 1141.27 638.256C1154.22 630.404 1169.09 626.248 1184.28 626.248C1230.05 626.248 1267.28 663.458 1267.28 709.221C1267.28 728.433 1260.56 747.159 1248.37 761.973Z" fill="#000E3F"/>
<path d="M1249.47 737.122C1248.69 733.938 1245.99 731.671 1242.84 731.293C1242.3 730.025 1241.65 728.811 1240.95 727.624C1238.17 723.064 1234.58 719.799 1231.15 716.669C1228.26 714.024 1225.27 711.326 1222.57 707.71C1219.14 703.123 1217.2 697.699 1215.12 691.925C1212.56 684.801 1209.92 677.408 1204.2 671.606C1199.96 667.289 1194.54 664.213 1188.6 662.621C1188.87 660.408 1188.71 658.115 1188.14 655.929C1186.04 647.699 1178.62 641.925 1170.12 641.925C1168.55 641.925 1166.99 642.114 1165.47 642.519C1161.27 643.598 1157.54 646.135 1155.01 649.67C1151.77 654.149 1150.69 659.816 1152.06 665.185C1152.63 667.425 1153.58 669.449 1154.87 671.256C1151.42 674.575 1148.64 678.596 1146.8 683.048C1146.32 684.208 1145.89 685.423 1145.53 686.664C1143.32 694.516 1144.56 702.233 1145.75 709.734C1146.69 715.778 1147.61 721.472 1146.8 727.138C1146.18 731.59 1144.89 735.422 1143.62 739.118C1141.73 744.622 1139.79 750.262 1140.41 757.547C1139.52 758.168 1138.79 758.977 1138.22 759.949C1137.14 761.73 1136.85 763.835 1137.39 765.858C1138.28 769.339 1141.38 771.74 1144.94 771.74C1145.62 771.74 1146.26 771.659 1146.88 771.497L1180.45 762.889C1180.53 763.564 1180.67 764.211 1180.83 764.859C1182.61 771.74 1188.79 776.516 1195.86 776.516C1197.15 776.516 1198.45 776.354 1199.72 776.031C1204.25 774.871 1207.97 771.794 1209.94 767.585C1211.46 764.32 1211.81 760.623 1210.92 757.143C1210.75 756.468 1210.54 755.848 1210.27 755.227L1243.86 746.619C1245.89 746.106 1247.59 744.838 1248.64 743.03C1249.72 741.25 1250.01 739.145 1249.47 737.122ZM1154.76 664.51C1153.55 659.761 1154.6 654.958 1157.27 651.288C1159.35 648.374 1162.43 646.161 1166.18 645.217C1167.5 644.866 1168.82 644.705 1170.12 644.705C1177.19 644.705 1183.64 649.481 1185.47 656.632C1185.93 658.44 1186.06 660.247 1185.93 662.001C1183.72 661.57 1181.42 661.354 1179.13 661.354H1178.97C1179.05 660.383 1178.97 659.357 1178.7 658.359C1177.67 654.338 1174.08 651.694 1170.12 651.694C1169.39 651.694 1168.63 651.775 1167.9 651.964C1165.26 652.639 1163.21 654.447 1162.1 656.74C1161.24 658.548 1160.97 660.653 1161.51 662.757C1161.78 663.756 1162.18 664.7 1162.72 665.509C1160.67 666.616 1158.73 667.911 1156.95 669.395C1155.98 667.937 1155.22 666.291 1154.76 664.51ZM1170.6 662.378C1168.77 662.864 1166.99 663.484 1165.29 664.267C1164.77 663.646 1164.42 662.891 1164.21 662.081C1163.86 660.678 1163.99 659.248 1164.61 657.926C1165.4 656.28 1166.85 655.093 1168.58 654.661C1169.09 654.526 1169.6 654.445 1170.12 654.445C1172.9 654.445 1175.33 656.334 1176.03 659.059C1176.22 659.869 1176.27 660.678 1176.13 661.487C1174.24 661.623 1172.41 661.946 1170.6 662.378ZM1149.56 727.515C1151.47 714.104 1144.46 700.667 1148.21 687.418C1148.53 686.285 1148.91 685.179 1149.37 684.099C1151.04 680.079 1153.52 676.463 1156.62 673.441C1157.3 672.793 1157.97 672.146 1158.73 671.579C1160.56 670.014 1162.59 668.692 1164.72 667.613C1165.72 667.073 1166.74 666.615 1167.77 666.183C1168.9 665.752 1170.06 665.374 1171.25 665.077C1172.44 664.78 1173.65 664.537 1174.84 664.402C1175.94 664.24 1177.05 664.159 1178.18 664.132C1178.51 664.105 1178.81 664.105 1179.13 664.105C1181.23 664.105 1183.36 664.321 1185.42 664.726C1186.33 664.888 1187.25 665.104 1188.11 665.346C1193.4 666.83 1198.31 669.61 1202.23 673.576C1211.91 683.371 1212.24 698.535 1220.36 709.356C1226.54 717.613 1233.77 721.202 1238.57 729.081C1239.03 729.837 1239.46 730.646 1239.87 731.51L1143.11 756.334C1142.57 745.621 1147.96 738.74 1149.56 727.515ZM1208.22 757.845C1208.97 760.813 1208.62 763.808 1207.43 766.398C1205.87 769.717 1202.87 772.362 1199.04 773.36C1197.99 773.63 1196.91 773.764 1195.86 773.764C1190.19 773.764 1185.01 769.932 1183.53 764.185C1183.36 763.538 1183.23 762.863 1183.2 762.189L1207.54 755.929C1207.84 756.549 1208.05 757.17 1208.22 757.845ZM1246.26 741.628C1245.59 742.734 1244.51 743.597 1243.16 743.948L1208.97 752.718L1206.11 753.447L1183.23 759.302L1180.4 760.031L1146.21 768.8C1145.78 768.908 1145.37 768.962 1144.94 768.962C1142.7 768.962 1140.65 767.451 1140.06 765.184C1139.71 763.835 1139.95 762.459 1140.6 761.353C1140.68 761.218 1140.76 761.083 1140.87 760.975C1141.46 760.139 1142.32 759.464 1143.38 759.14C1143.48 759.086 1143.59 759.059 1143.7 759.032L1187.9 747.699L1196.45 745.513L1240.65 734.18C1240.79 734.153 1240.89 734.126 1241 734.126C1241.33 734.045 1241.62 734.018 1241.92 734.018C1242.7 734.018 1243.43 734.207 1244.1 734.531C1245.4 735.151 1246.43 736.312 1246.8 737.796C1247.15 739.145 1246.91 740.521 1246.26 741.628Z" fill="#000E3F"/>
<path d="M1439.18 469.578C1437.91 469.578 1436.65 469.083 1435.72 468.219C1434.71 467.28 1434.16 465.99 1434.16 464.586V434.588C1434.16 432.814 1432.72 431.371 1430.94 431.371H1423.95C1420.28 431.371 1417.29 428.38 1417.29 424.704V358.786C1417.29 355.101 1420.28 352.102 1423.95 352.102H1545.26C1548.94 352.102 1551.93 355.101 1551.93 358.786V424.703C1551.93 428.379 1548.94 431.37 1545.26 431.37H1479.2C1478.33 431.37 1477.48 431.73 1476.87 432.359L1442.75 468.027C1441.8 469.026 1440.53 469.578 1439.18 469.578Z" fill="#FF8EDE"/>
<path opacity="0.5" d="M1550.54 358.786V424.703C1550.54 427.619 1548.18 429.982 1545.26 429.982H1479.2C1477.95 429.982 1476.75 430.492 1475.87 431.396L1441.75 467.068C1439.51 469.42 1435.55 467.824 1435.55 464.584V434.586C1435.55 432.043 1433.49 429.981 1430.94 429.981H1423.95C1421.04 429.981 1418.67 427.617 1418.67 424.702C1418.67 418.035 1424.08 412.63 1430.75 412.63H1520.37C1526.82 412.63 1532.04 407.406 1532.04 400.962V366.712C1532.04 359.409 1537.96 353.489 1545.26 353.489C1548.17 353.49 1550.54 355.859 1550.54 358.786Z" fill="#FC09B2"/>
<path d="M1453.25 381.71C1448.06 381.71 1443.84 385.934 1443.84 391.125C1443.84 396.317 1448.06 400.54 1453.25 400.54C1458.44 400.54 1462.67 396.317 1462.67 391.125C1462.67 385.935 1458.44 381.71 1453.25 381.71Z" fill="white"/>
<path d="M1484.61 381.71C1479.42 381.71 1475.19 385.934 1475.19 391.125C1475.19 396.317 1479.42 400.54 1484.61 400.54C1489.8 400.54 1494.02 396.317 1494.02 391.125C1494.02 385.935 1489.8 381.71 1484.61 381.71Z" fill="white"/>
<path d="M1515.96 381.71C1510.77 381.71 1506.54 385.934 1506.54 391.125C1506.54 396.317 1510.77 400.54 1515.96 400.54C1521.15 400.54 1525.38 396.317 1525.38 391.125C1525.37 385.935 1521.15 381.71 1515.96 381.71Z" fill="white"/>
<path opacity="0.5" d="M1429.36 365.304C1434.85 364.69 1440.33 364.365 1445.81 364.143C1451.29 363.902 1456.77 363.832 1462.26 363.796C1467.74 363.814 1473.22 363.87 1478.7 364.096C1484.18 364.304 1489.67 364.616 1495.15 365.219C1495.94 365.306 1496.51 366.019 1496.42 366.81C1496.35 367.495 1495.8 368.014 1495.15 368.086C1489.67 368.689 1484.18 369.001 1478.7 369.209C1473.22 369.435 1467.74 369.49 1462.26 369.509C1456.77 369.473 1451.29 369.403 1445.81 369.162C1440.33 368.939 1434.85 368.615 1429.36 368.001C1428.62 367.918 1428.08 367.246 1428.17 366.502C1428.24 365.86 1428.75 365.373 1429.36 365.304Z" fill="white"/>
<path d="M1545.26 350.714H1423.95C1419.51 350.714 1415.9 354.335 1415.9 358.786V424.703C1415.9 429.144 1419.51 432.758 1423.95 432.758H1430.94C1431.95 432.758 1432.77 433.579 1432.77 434.587V464.585C1432.77 468.103 1435.65 470.966 1439.18 470.966C1440.92 470.966 1442.54 470.261 1443.76 468.981L1477.88 433.315C1478.22 432.964 1478.7 432.758 1479.2 432.758H1545.26C1549.7 432.758 1553.32 429.144 1553.32 424.703V358.786C1553.32 354.335 1549.7 350.714 1545.26 350.714ZM1550.54 424.703C1550.54 427.614 1548.17 429.982 1545.26 429.982H1479.2C1477.95 429.982 1476.74 430.492 1475.87 431.396L1441.75 467.068C1441.01 467.843 1440.09 468.189 1439.18 468.189C1437.33 468.189 1435.55 466.756 1435.55 464.584V434.586C1435.55 432.037 1433.49 429.981 1430.94 429.981H1423.95C1421.04 429.981 1418.67 427.613 1418.67 424.702V358.786C1418.67 355.859 1421.04 353.49 1423.95 353.49H1545.26C1548.17 353.49 1550.54 355.858 1550.54 358.786V424.703H1550.54Z" fill="#000E3F"/>
<path d="M1453.25 380.323C1447.3 380.323 1442.45 385.169 1442.45 391.126C1442.45 397.083 1447.3 401.929 1453.25 401.929C1459.21 401.929 1464.06 397.083 1464.06 391.126C1464.06 385.169 1459.21 380.323 1453.25 380.323ZM1453.25 399.153C1448.82 399.153 1445.23 395.559 1445.23 391.126C1445.23 386.693 1448.82 383.099 1453.25 383.099C1457.69 383.099 1461.28 386.693 1461.28 391.126C1461.28 395.559 1457.69 399.153 1453.25 399.153Z" fill="#000E3F"/>
<path d="M1484.61 380.323C1478.65 380.323 1473.8 385.169 1473.8 391.126C1473.8 397.083 1478.65 401.929 1484.61 401.929C1490.56 401.929 1495.41 397.083 1495.41 391.126C1495.41 385.169 1490.56 380.323 1484.61 380.323ZM1484.61 399.153C1480.17 399.153 1476.58 395.559 1476.58 391.126C1476.58 386.693 1480.17 383.099 1484.61 383.099C1489.04 383.099 1492.63 386.693 1492.63 391.126C1492.63 395.559 1489.04 399.153 1484.61 399.153Z" fill="#000E3F"/>
<path d="M1515.96 380.323C1510 380.323 1505.16 385.169 1505.16 391.126C1505.16 397.083 1510 401.929 1515.96 401.929C1521.92 401.929 1526.76 397.083 1526.76 391.126C1526.76 385.169 1521.92 380.323 1515.96 380.323ZM1515.96 399.153C1511.53 399.153 1507.93 395.559 1507.93 391.126C1507.93 386.693 1511.53 383.099 1515.96 383.099C1520.39 383.099 1523.99 386.693 1523.99 391.126C1523.99 395.559 1520.39 399.153 1515.96 399.153Z" fill="#000E3F"/>
<path d="M1448.72 767.322C1444.86 767.322 1441.72 764.171 1441.72 760.298V690.119C1441.72 686.255 1444.86 683.112 1448.72 683.112H1461.29C1461.5 683.112 1461.71 683.085 1461.92 683.048C1463.58 682.752 1464.79 681.301 1464.79 679.597V647.657C1464.79 644.779 1467.15 642.438 1470.04 642.438C1471.46 642.438 1472.79 643.015 1473.79 644.061L1510.12 682.044C1510.78 682.719 1511.71 683.113 1512.66 683.113H1589.08C1592.94 683.113 1596.08 686.256 1596.08 690.12V760.299C1596.08 764.172 1592.94 767.323 1589.08 767.323H1448.72V767.322Z" fill="#91D728"/>
<path opacity="0.5" d="M1509.08 696.194C1515.36 695.58 1521.64 695.256 1527.92 695.033C1534.21 694.792 1540.49 694.722 1546.77 694.686C1553.05 694.705 1559.34 694.76 1565.62 694.986C1571.9 695.194 1578.18 695.506 1584.46 696.109C1585.26 696.185 1585.84 696.889 1585.76 697.681C1585.69 698.379 1585.14 698.913 1584.46 698.977C1578.18 699.58 1571.9 699.892 1565.62 700.1C1559.34 700.326 1553.05 700.381 1546.77 700.4C1540.49 700.364 1534.21 700.294 1527.92 700.053C1521.64 699.83 1515.36 699.506 1509.08 698.892C1508.33 698.819 1507.79 698.157 1507.86 697.412C1507.92 696.755 1508.44 696.255 1509.08 696.194Z" fill="white"/>
<path opacity="0.25" d="M1579.05 744.652C1587.69 744.652 1594.69 751.657 1594.69 760.298C1594.69 763.414 1592.17 765.933 1589.08 765.933H1448.72C1445.62 765.933 1443.11 763.413 1443.11 760.298V690.118C1443.11 687.015 1445.63 684.5 1448.74 684.5C1448.89 684.5 1449.04 684.5 1449.19 684.5C1456.36 684.501 1462.16 690.309 1462.16 697.475V732.645C1462.16 739.276 1467.53 744.651 1474.16 744.651H1579.05V744.652Z" fill="#000E3F"/>
<path d="M1589.07 681.725H1512.65C1512.08 681.725 1511.51 681.482 1511.09 681.057L1474.79 643.099C1473.53 641.779 1471.84 641.049 1470.04 641.049C1466.38 641.049 1463.4 644.013 1463.4 647.656V679.596C1463.4 680.626 1462.67 681.503 1461.67 681.681C1461.51 681.709 1461.38 681.723 1461.29 681.723H1448.72C1444.09 681.723 1440.33 685.489 1440.33 690.117V760.297C1440.33 764.935 1444.1 768.708 1448.72 768.708H1589.07C1593.7 768.708 1597.47 764.935 1597.47 760.297V690.117C1597.47 685.49 1593.7 681.725 1589.07 681.725ZM1594.69 760.299C1594.69 763.415 1592.17 765.934 1589.07 765.934H1448.72C1445.62 765.934 1443.11 763.414 1443.11 760.299V690.119C1443.11 687.021 1445.63 684.501 1448.72 684.501H1461.29C1461.58 684.501 1461.87 684.467 1462.16 684.416C1464.45 684.007 1466.17 682.016 1466.17 679.598V647.658C1466.17 645.352 1468.07 643.826 1470.04 643.826C1471.01 643.826 1471.99 644.194 1472.78 645.019L1509.11 683.003C1510.05 683.957 1511.33 684.501 1512.65 684.501H1589.07C1592.17 684.501 1594.69 687.021 1594.69 690.119V760.299H1594.69Z" fill="#000E3F"/>
<path d="M1576 712.895H1461.8C1460.99 712.895 1460.33 713.553 1460.33 714.365C1460.33 715.177 1460.99 715.835 1461.8 715.835H1576C1576.81 715.835 1577.47 715.177 1577.47 714.365C1577.47 713.553 1576.81 712.895 1576 712.895Z" fill="#000E3F"/>
<path d="M1576 731.329H1461.8C1460.99 731.329 1460.33 731.987 1460.33 732.798C1460.33 733.61 1460.99 734.267 1461.8 734.267H1576C1576.81 734.267 1577.47 733.609 1577.47 732.798C1577.47 731.987 1576.81 731.329 1576 731.329Z" fill="#000E3F"/>
<path d="M1576 749.764H1461.8C1460.99 749.764 1460.33 750.422 1460.33 751.234C1460.33 752.046 1460.99 752.703 1461.8 752.703H1576C1576.81 752.703 1577.47 752.045 1577.47 751.234C1577.47 750.422 1576.81 749.764 1576 749.764Z" fill="#000E3F"/>
<path d="M1199.65 310.577C1197.92 310.47 1197.16 312.722 1198.6 313.682L1228.3 333.434L1236.68 381.451L1280.33 368.031L1268.15 359.935L1300.54 381.469C1302.32 382.659 1304.71 382.362 1306.16 380.771L1360.83 320.541L1199.65 310.577Z" fill="#91D728"/>
<path opacity="0.5" d="M1328.93 339.584C1319.96 344.665 1306.63 356.497 1300.41 365.144C1299.36 366.609 1301.05 368.487 1302.62 367.593C1311.83 362.327 1324.99 350.318 1331 341.885C1331.99 340.496 1330.41 338.743 1328.93 339.584Z" fill="white"/>
<path opacity="0.25" d="M1360.83 320.542L1260.2 354.647L1236.68 381.452L1228.3 333.434L1360.83 320.542Z" fill="#000E3F"/>
<path d="M1362.06 320.363C1361.98 319.811 1361.57 319.317 1360.92 319.281L1199.74 309.307C1198.39 309.24 1197.18 310.051 1196.72 311.325C1196.29 312.598 1196.77 313.979 1197.92 314.754L1227.14 334.187L1227.16 334.298L1235.45 381.72C1235.46 381.815 1235.5 381.895 1235.53 381.958C1235.65 382.211 1235.8 382.4 1236.01 382.523C1236.14 382.616 1236.28 382.661 1236.41 382.69C1236.64 382.749 1236.88 382.728 1237.1 382.659L1280.12 369.413L1280.24 369.491L1299.83 382.512C1300.41 382.915 1301.06 383.189 1301.8 383.349C1303.76 383.754 1305.75 383.118 1307.09 381.617C1307.09 381.617 1361.67 321.497 1361.73 321.424C1362.01 321.121 1362.11 320.729 1362.06 320.363ZM1228.63 332.138L1228.55 332.092L1199.3 312.628C1199.05 312.458 1199.1 312.233 1199.14 312.12C1199.16 312.024 1199.25 311.862 1199.5 311.84L1346.23 320.719L1228.63 332.138ZM1229.79 334.576L1232.76 334.287L1350.06 322.863L1259.75 353.465L1259.7 353.53L1259.51 353.598C1259.4 353.664 1259.3 353.73 1259.26 353.811L1258.09 355.132L1237.47 378.635L1229.79 334.576ZM1240.57 378.919L1260.42 356.313L1277.41 367.616L1240.57 378.919ZM1305.23 379.913C1304.62 380.567 1303.81 380.92 1303 380.938C1302.39 380.951 1301.78 380.773 1301.24 380.433L1263.05 355.023L1263.59 354.835L1356.63 323.294L1305.23 379.913Z" fill="#000E3F"/>
<path d="M1222.25 379.055C1222.99 378.887 1223.47 378.145 1223.3 377.397C1223.13 376.648 1222.38 376.184 1221.64 376.346C1154.97 391.302 1131.65 439.391 1123.84 477.098C1123.68 477.848 1124.17 478.583 1124.92 478.739C1125.01 478.758 1125.11 478.768 1125.2 478.768C1125.84 478.768 1126.42 478.317 1126.56 477.661C1134.21 440.753 1157.02 393.686 1222.25 379.055Z" fill="#000E3F"/>
<path d="M1226.25 386.893C1185.97 403.505 1158.65 440.059 1151.28 487.184C1151.16 487.941 1151.68 488.652 1152.44 488.77C1152.51 488.781 1152.58 488.787 1152.65 488.787C1153.33 488.787 1153.92 488.298 1154.02 487.613C1161.23 441.468 1187.95 405.693 1227.31 389.459C1228.02 389.167 1228.35 388.355 1228.06 387.647C1227.77 386.94 1226.96 386.601 1226.25 386.893Z" fill="#000E3F"/>
<path d="M1584.69 484.965C1585.64 483.24 1584.21 481.17 1582.26 481.462L1570.13 483.278C1569.36 483.394 1568.57 483.122 1568.04 482.549L1559.67 473.588C1558.32 472.148 1555.91 472.876 1555.59 474.82L1553.56 486.914C1553.44 487.686 1552.94 488.345 1552.23 488.677L1541.12 493.869C1539.33 494.704 1539.28 497.224 1541.03 498.133L1551.9 503.792C1552.6 504.153 1553.07 504.833 1553.17 505.61L1554.67 517.78C1554.91 519.736 1557.29 520.566 1558.7 519.184L1567.44 510.587C1568 510.038 1568.79 509.799 1569.56 509.948L1581.6 512.277C1583.54 512.652 1585.06 510.645 1584.18 508.881L1578.71 497.909C1578.36 497.209 1578.37 496.381 1578.75 495.696L1584.69 484.965Z" fill="#FD8A02"/>
<path d="M1168.42 354.403L1158.52 350.22C1157.89 349.953 1157.43 349.392 1157.29 348.72L1155.13 338.193C1154.78 336.501 1152.64 335.943 1151.51 337.249L1144.47 345.372C1144.02 345.891 1143.35 346.155 1142.67 346.079L1131.99 344.887C1130.27 344.695 1129.08 346.556 1129.97 348.035L1135.52 357.238C1135.87 357.825 1135.92 358.55 1135.63 359.174L1131.2 368.964C1130.49 370.537 1131.89 372.245 1133.57 371.854L1144.04 369.419C1144.71 369.264 1145.41 369.447 1145.92 369.909L1153.86 377.152C1155.13 378.316 1157.19 377.511 1157.34 375.79L1158.26 365.082C1158.32 364.399 1158.71 363.788 1159.3 363.448L1168.65 358.134C1170.15 357.281 1170.02 355.075 1168.42 354.403Z" fill="#FD8A02"/>
<path d="M1572.73 628.513C1572.23 628.185 1571.92 627.631 1571.91 627.032L1571.69 617.643C1571.65 616.134 1569.9 615.321 1568.72 616.268L1561.41 622.157C1560.94 622.533 1560.32 622.655 1559.74 622.484L1550.74 619.796C1549.3 619.364 1547.98 620.778 1548.52 622.189L1551.86 630.967C1552.07 631.527 1552 632.156 1551.66 632.65L1546.32 640.378C1545.46 641.62 1546.4 643.307 1547.91 643.232L1557.29 642.768C1557.89 642.738 1558.46 643.005 1558.83 643.482L1564.53 650.946C1565.44 652.146 1567.34 651.774 1567.73 650.317L1570.19 641.252C1570.35 640.673 1570.78 640.209 1571.34 640.01L1580.2 636.895C1581.63 636.394 1581.86 634.478 1580.6 633.652L1572.73 628.513Z" fill="#FD8A02"/>
<path d="M1135.17 573.251C1134.67 572.923 1134.36 572.369 1134.35 571.77L1134.13 562.381C1134.09 560.872 1132.34 560.059 1131.16 561.006L1123.85 566.895C1123.38 567.271 1122.76 567.393 1122.18 567.221L1113.18 564.533C1111.74 564.101 1110.42 565.515 1110.96 566.926L1114.3 575.704C1114.51 576.264 1114.44 576.894 1114.1 577.387L1108.76 585.114C1107.9 586.356 1108.84 588.043 1110.35 587.968L1119.73 587.504C1120.33 587.475 1120.9 587.741 1121.27 588.218L1126.97 595.682C1127.88 596.882 1129.78 596.51 1130.17 595.053L1132.63 585.988C1132.79 585.409 1133.22 584.945 1133.78 584.746L1142.64 581.631C1144.07 581.13 1144.3 579.214 1143.04 578.388L1135.17 573.251Z" fill="#FD8A02"/>
<path d="M1432.21 294.229L1419.96 294.72C1419.18 294.751 1418.43 294.396 1417.96 293.769L1410.61 283.954C1409.43 282.376 1406.95 282.838 1406.42 284.735L1403.1 296.539C1402.89 297.293 1402.32 297.893 1401.58 298.146L1389.97 302.103C1388.11 302.739 1387.78 305.239 1389.42 306.332L1399.62 313.137C1400.27 313.571 1400.67 314.298 1400.68 315.081L1400.86 327.342C1400.89 329.313 1403.16 330.396 1404.71 329.174L1414.33 321.576C1414.95 321.091 1415.76 320.939 1416.51 321.17L1428.22 324.79C1430.11 325.372 1431.84 323.542 1431.16 321.693L1426.9 310.192C1426.63 309.458 1426.74 308.637 1427.19 307.997L1434.25 297.973C1435.39 296.364 1434.18 294.15 1432.21 294.229Z" fill="#FD8A02"/>
<path d="M1389.81 763.668L1379.36 761.151C1378.69 760.99 1378.15 760.511 1377.9 759.871L1374.05 749.837C1373.43 748.224 1371.23 748.021 1370.33 749.493L1364.71 758.653C1364.35 759.237 1363.72 759.608 1363.04 759.644L1352.3 760.205C1350.58 760.295 1349.71 762.324 1350.83 763.639L1357.8 771.816C1358.25 772.338 1358.41 773.046 1358.23 773.709L1355.45 784.09C1355 785.759 1356.66 787.216 1358.26 786.556L1368.19 782.451C1368.82 782.189 1369.54 782.256 1370.12 782.63L1379.13 788.485C1380.58 789.426 1382.48 788.297 1382.35 786.575L1381.51 775.86C1381.46 775.176 1381.74 774.51 1382.28 774.078L1390.63 767.315C1391.97 766.228 1391.49 764.073 1389.81 763.668Z" fill="#FD8A02"/>
<path d="M1547.24 327.161L1554.08 333.598C1555.18 334.633 1556.99 333.958 1557.14 332.456L1558.09 323.113C1558.15 322.517 1558.5 321.988 1559.03 321.7L1567.26 317.186C1568.59 316.46 1568.51 314.532 1567.12 313.922L1558.53 310.131C1557.98 309.889 1557.59 309.392 1557.48 308.804L1555.73 299.576C1555.45 298.092 1553.59 297.575 1552.58 298.701L1546.32 305.702C1545.92 306.149 1545.33 306.37 1544.73 306.294L1535.42 305.105C1533.92 304.914 1532.85 306.523 1533.61 307.828L1538.34 315.945C1538.64 316.464 1538.66 317.097 1538.41 317.639L1534.4 326.132C1533.76 327.497 1534.96 329.009 1536.43 328.69L1545.61 326.706C1546.2 326.58 1546.81 326.75 1547.24 327.161Z" fill="#FD8A02"/>
</svg>
