<svg width="108" height="35" viewBox="0 0 108 35" fill="none" xmlns="http://www.w3.org/2000/svg">
<path d="M52.264 17.416C52.472 17.416 52.52 17.288 52.52 17.192C52.52 17.096 52.472 16.968 52.264 16.968H46.84V12.472C47.624 12.248 49.576 12.088 50.536 12.088C51.496 12.088 53.464 12.232 54.248 12.472C54.504 12.552 54.632 12.152 54.392 12.072C53.48 11.752 51.96 11.64 50.52 11.64C49.176 11.64 46.552 11.928 46.376 12.184L46.36 12.168V22.76C46.36 22.92 46.472 23 46.6 23C46.712 23 46.84 22.92 46.84 22.76V17.416H52.264ZM60.5618 19.656C60.5618 17.544 59.0738 16.12 56.9938 16.12C54.9138 16.12 53.4418 17.544 53.4418 19.64C53.4418 21.736 54.9138 23.16 57.0098 23.16C59.0738 23.16 60.5618 21.768 60.5618 19.656ZM60.0818 19.656C60.0818 21.496 58.8178 22.712 56.9938 22.712C55.1858 22.712 53.9218 21.496 53.9218 19.656C53.9218 17.816 55.1858 16.568 56.9938 16.568C58.8178 16.568 60.0818 17.816 60.0818 19.656ZM62.6543 22.76C62.6543 22.92 62.7663 23 62.8783 23C62.9903 23 63.1023 22.92 63.1023 22.76V19.88C63.1023 17.912 64.2543 16.568 66.1423 16.568C66.3023 16.568 66.3823 16.456 66.3823 16.344C66.3823 16.232 66.3023 16.12 66.1423 16.12C63.8703 16.12 62.6543 17.672 62.6543 19.88V22.76ZM78.5751 21.72C78.5751 22.488 79.0391 23 79.9351 23C80.8311 23 81.3271 22.488 81.3271 21.72V16.04C81.3271 13 79.7911 11.72 77.1191 11.72C75.9671 11.72 74.9911 12.088 74.2871 13.08C73.5831 12.088 72.6071 11.72 71.4551 11.72C68.8791 11.72 67.2471 12.696 67.2471 16.04V21.72C67.2471 22.488 67.7431 23 68.6391 23C69.5351 23 69.9991 22.488 69.9991 21.72V16.04C69.9991 14.904 70.5111 14.28 71.4551 14.28C72.3991 14.28 72.9111 14.904 72.9111 16.04V21.72C72.9111 22.488 73.4231 23 74.2711 23C75.1671 23 75.6631 22.488 75.6631 21.72V16.04C75.6631 14.904 76.1751 14.28 77.1191 14.28C78.0631 14.28 78.5751 14.904 78.5751 16.04V21.72ZM86.563 20.632C88.051 20.632 89.443 20.184 89.443 18.568C89.443 16.84 87.843 16.12 86.083 16.12C83.763 16.12 82.195 17.368 82.195 19.608C82.195 21.624 83.475 23.064 86.147 23.064C87.315 23.064 88.115 23.016 88.819 22.648C89.171 22.424 89.331 22.088 89.331 21.768C89.331 21.176 88.819 20.632 88.003 20.856C87.555 20.984 87.235 21.064 86.643 21.064C85.651 21.064 85.155 20.824 84.915 20.392C85.443 20.584 86.035 20.632 86.563 20.632ZM86.147 18.024C86.659 18.024 86.931 18.136 86.931 18.456C86.931 18.744 86.691 18.84 86.099 18.84C85.619 18.84 85.299 18.792 84.899 18.664C85.091 18.232 85.475 18.024 86.147 18.024ZM96.7736 22.76C96.7736 22.92 96.8856 23 96.9976 23C97.1096 23 97.2216 22.92 97.2216 22.76V19.512C97.2216 17.192 96.0376 16.12 94.1176 16.12C92.1976 16.12 91.0136 17.192 91.0136 19.512V22.76C91.0136 22.92 91.1256 23 91.2376 23C91.3496 23 91.4616 22.92 91.4616 22.76V19.512C91.4616 17.496 92.4376 16.552 94.1176 16.552C95.7976 16.552 96.7736 17.496 96.7736 19.512V22.76ZM105.477 19.768C105.477 21.688 104.597 22.712 102.821 22.712C101.045 22.712 100.165 21.688 100.165 19.768V16.52C100.165 16.36 100.053 16.28 99.9408 16.28C99.8288 16.28 99.7168 16.36 99.7168 16.52V19.768C99.7168 22.088 100.901 23.16 102.821 23.16C104.741 23.16 105.925 22.088 105.925 19.768V16.52C105.925 16.36 105.813 16.28 105.701 16.28C105.589 16.28 105.477 16.36 105.477 16.52V19.768Z" fill="#0F172A"/>
<path d="M25.9875 35H5.77495C4.92095 35 4.22095 34.3 4.22095 33.446V4.3365C4.22095 3.4825 4.92095 2.7825 5.77495 2.7825L25.9875 0C26.8415 0 27.5415 0.7 27.5415 1.554V33.4425C27.5415 34.3 26.8415 35 25.9875 35Z" fill="url(#paint0_linear_582_4)"/>
<path d="M29.2425 2.814H5.75753C4.90703 2.814 4.21753 3.5035 4.21753 4.354V33.46C4.21753 34.3105 4.90703 35 5.75753 35H29.2425C30.093 35 30.7825 34.3105 30.7825 33.46V4.354C30.7825 3.5035 30.093 2.814 29.2425 2.814Z" fill="url(#paint1_linear_582_4)"/>
<path d="M5.75403 2.814C4.90353 2.814 4.21753 3.5035 4.21753 4.354V27.006L17.4545 35L30.779 26.957V4.354C30.779 3.5035 30.0895 2.814 29.2425 2.814H17.4545H5.75403Z" fill="url(#paint2_linear_582_4)"/>
<path d="M5.75403 2.814C4.90353 2.814 4.21753 3.5035 4.21753 4.354V19.0155L17.4545 35L30.779 18.9105V4.354C30.779 3.5035 30.0895 2.814 29.2425 2.814H17.4545H5.75403Z" fill="url(#paint3_linear_582_4)"/>
<path d="M30.7824 4.354C30.7824 3.5035 30.0929 2.814 29.2459 2.814H17.4544H5.75745C4.90695 2.814 4.22095 3.5035 4.22095 4.354V11.025L8.57145 18.907L17.4544 35L26.3409 18.907L30.7789 10.8675V4.354H30.7824Z" fill="url(#paint4_linear_582_4)"/>
<path d="M29.246 2.814H17.4545H5.75398C5.22898 2.814 4.76698 3.0765 4.49048 3.479L10.836 18.907L17.4545 35L24.073 18.907L30.45 3.402C30.17 3.045 29.736 2.8175 29.246 2.814Z" fill="url(#paint5_linear_582_4)"/>
<path d="M22.2319 18.466H12.6804C12.1974 18.466 11.8054 18.074 11.8054 17.591C11.8054 14.476 14.3394 11.942 17.4544 11.942C20.5694 11.942 23.1034 14.476 23.1034 17.591C23.1069 18.074 22.7149 18.466 22.2319 18.466Z" fill="white"/>
<path d="M23.1 26.9535H11.8195C11.2595 26.9535 10.801 26.495 10.801 25.935C10.801 25.375 11.2595 24.9165 11.8195 24.9165H23.1C23.66 24.9165 24.1185 25.375 24.1185 25.935C24.1185 26.495 23.66 26.9535 23.1 26.9535Z" fill="white"/>
<path d="M23.1 18.907H11.8195C11.2595 18.907 10.801 18.4485 10.801 17.8885C10.801 17.3285 11.2595 16.87 11.8195 16.87H23.1C23.66 16.87 24.1185 17.3285 24.1185 17.8885C24.1185 18.4485 23.66 18.907 23.1 18.907Z" fill="white"/>
<path d="M17.3565 22.932H11.8195C11.2595 22.932 10.801 22.4735 10.801 21.9135C10.801 21.3535 11.2595 20.895 11.8195 20.895H17.3565C17.9165 20.895 18.375 21.3535 18.375 21.9135C18.375 22.4735 17.9165 22.932 17.3565 22.932Z" fill="white"/>
<path d="M16.625 12.929V11.9105C16.625 11.4275 17.0205 11.0355 17.5 11.0355C17.983 11.0355 18.375 11.431 18.375 11.9105V12.929C18.375 13.412 17.9795 13.804 17.5 13.804C17.017 13.804 16.625 13.412 16.625 12.929Z" fill="white"/>
<defs>
<linearGradient id="paint0_linear_582_4" x1="15.8802" y1="-18.9303" x2="15.8802" y2="12.35" gradientUnits="userSpaceOnUse">
<stop offset="0.0164928" stop-color="#49F9F5"/>
<stop offset="0.8059" stop-color="#0F3F8A"/>
</linearGradient>
<linearGradient id="paint1_linear_582_4" x1="17.5" y1="35" x2="17.5" y2="19.4001" gradientUnits="userSpaceOnUse">
<stop stop-color="#49F9F5"/>
<stop offset="1" stop-color="#0F3F8A"/>
</linearGradient>
<linearGradient id="paint2_linear_582_4" x1="17.5" y1="35" x2="17.5" y2="15.5229" gradientUnits="userSpaceOnUse">
<stop stop-color="#49F9F5"/>
<stop offset="1" stop-color="#0F3F8A"/>
</linearGradient>
<linearGradient id="paint3_linear_582_4" x1="17.5" y1="35" x2="17.5" y2="11.285" gradientUnits="userSpaceOnUse">
<stop stop-color="#49F9F5"/>
<stop offset="1" stop-color="#0F3F8A"/>
</linearGradient>
<linearGradient id="paint4_linear_582_4" x1="17.4999" y1="35" x2="17.4999" y2="7.40045" gradientUnits="userSpaceOnUse">
<stop stop-color="#49F9F5"/>
<stop offset="1" stop-color="#0F3F8A"/>
</linearGradient>
<linearGradient id="paint5_linear_582_4" x1="17.4718" y1="35" x2="17.4718" y2="3.40057" gradientUnits="userSpaceOnUse">
<stop stop-color="#49F9F5"/>
<stop offset="1" stop-color="#0F3F8A"/>
</linearGradient>
</defs>
</svg>
