<svg id="Layer_1" enable-background="new 0 0 512 512" height="512" viewBox="0 0 512 512" width="512" xmlns="http://www.w3.org/2000/svg"><g id="Surfaces"><g id="Photo_Surface"><g id="Outline_no_shadow"><path d="m100 24h312c46.392 0 84 37.608 84 84v296c0 46.392-37.608 84-84 84h-312c-46.392 0-84-37.608-84-84v-296c0-46.392 37.608-84 84-84z" fill="#371351"/></g></g></g><g fill="#d7a2fe"><path d="m217.58 312h-71.58l-18.48 53.36c-.213 1.76-1.327 2.64-3.34 2.64h-33.6c-2.24 0-3.02-1.1-2.34-3.3l64.84-192.58c1.831-5.864 2.735-11.977 2.68-18.12-.13-.974.554-1.87 1.529-2 .156-.021.315-.021.471 0h47.04c1.36 0 2.14.56 2.36 1.64l72.56 211.4c.68 2 .12 2.96-1.68 2.96h-37.62c-1.424.085-2.756-.708-3.36-2zm-63.58-36h55.76c-1.34-2.94-26.42-83.86-28.22-90.68h-.32z"/><path d="m387.08 296.98h-59.26c.227 13.853 4.113 24.787 11.66 32.8s18.88 12.013 34 12c12.67.226 25.247-2.206 36.92-7.14 1.3-.86 2-.44 2 1.3v23.7c-.016 1.542-.757 2.987-2 3.9-12.267 5.64-27.38 8.46-45.34 8.46-26.533 0-46.013-7.633-58.44-22.9s-18.633-34.373-18.62-57.32c0-23.853 6.473-43.78 19.42-59.78s30.653-24 53.12-24c21.333 0 37.253 6.6 47.76 19.8 10.455 13.194 16.004 29.609 15.7 46.44.2 6.308-.235 12.62-1.3 18.84-.095 1.387-1.194 2.494-2.58 2.6-5.613.867-16.627 1.3-33.04 1.3zm-59.26-24.98h42.76c9.333 0 14.62-.22 15.86-.66.269-1.498.376-3.02.32-4.54.095-7.817-2.163-15.482-6.48-22-4.32-6.493-11.333-9.74-21.04-9.74-9.493 0-16.827 3.46-22 10.38-5.508 7.826-8.766 17.012-9.42 26.56z"/></g></svg>