<svg id="Layer_1" height="512" viewBox="0 0 256 256" width="512" xmlns="http://www.w3.org/2000/svg" data-name="Layer 1"><g id="Surfaces"><g id="Photo_Surface" data-name="Photo Surface"><g id="Outline_no_shadow" data-name="Outline no shadow"><rect fill="#00005b" height="232" rx="42" width="240" x="8" y="12"/></g></g></g><g fill="#99f"><path d="m60 182.88v-108.88a1 1 0 0 1 1.12-1.12c8.11-.21 17.68-.88 30.16-.88 14.72 0 25.52 3.07 32.4 9.68a32.6 32.6 0 0 1 10.32 24.48q0 18.09-12.8 26.88t-32.2 8.8l-9 .16v40.72a1.13 1.13 0 0 1 -1.28 1.28h-17.44c-.85 0-1.28-.37-1.28-1.12zm20-95.26v39.38s4.56-.18 10-.18q10.73 0 17.36-4.72t6.64-15.46q0-9.44-5.84-14.56t-16.88-5.08c-1.81 0-3.6 0-5.36.08s-3.2.08-4.32.08-1.72-.04-1.6.46z"/><path d="m149 104h17a1.84 1.84 0 0 1 1.83 1.33 23.4 23.4 0 0 1 2.17 8.67c6.42-8.3 14.32-12 24.84-12a1 1 0 0 1 1.16 1.16v17.66c0 .89-.44 1.27-1.33 1.16-9.63-.55-17.27.71-22.8 6.24a5.24 5.24 0 0 0 -1.87 3.78v50.84c0 .77-.44 1.16-1.33 1.16h-17.18c-1 0-1.49-.44-1.49-1.33v-56.67c0-13.42-1-15.33-2-20.84-.11-.77.22-1.16 1-1.16z"/></g></svg>