<svg id="Layer_1" height="512" viewBox="0 0 256 256" width="512" xmlns="http://www.w3.org/2000/svg" data-name="Layer 1"><g id="Surfaces"><g id="Photo_Surface" data-name="Photo Surface"><g id="Outline_no_shadow" data-name="Outline no shadow"><rect fill="#470137" height="232" rx="42" width="240" x="8" y="12"/></g></g></g><g fill="#ff61f6"><path d="m131.37 77.64-29.52 50.72 31.81 54c.65 1.1.37 1.64-.82 1.64h-19.84a2.46 2.46 0 0 1 -2.44-1.31l-22.39-41.07h-.17l-21.8 41.07a2.41 2.41 0 0 1 -2.12 1.31h-19.08c-1.09 0-1.3-.54-.65-1.64l31.28-52.52-29.8-52.53c-.65-.87-.43-1.31.65-1.31h19.88a2.24 2.24 0 0 1 2.12 1.15l21 40.58h.16l20.89-40.58a2.24 2.24 0 0 1 2.11-1.15h18.08c1.2 0 1.41.55.65 1.64z"/><path d="m179.87 186c-11.6 0-20.53-3.29-27.46-9.86s-10.41-16.28-10.41-29.14q0-17.53 11.18-28.8a40 40 0 0 1 29.48-12.2 29.62 29.62 0 0 1 7.3.78v-33.84a.83.83 0 0 1 .93-.94h18.28c.51 0 .77.31.77.94v94.75c0 4 1.73 7.41 2 10.33a1.26 1.26 0 0 1 -.78 1.41c-8.97 4.38-20.73 6.57-31.29 6.57zm10.13-15.49v-48.37c-.65-1.14-4.09-2.14-7.61-2.14a19.58 19.58 0 0 0 -15.39 6.85 29.24 29.24 0 0 0 -7 19.4c0 8.76 3 14.76 6.91 18.93a19.9 19.9 0 0 0 14.82 6.82c3.73 0 7.38-.56 8.27-1.49z"/></g></svg>